Geologica-LightItalic.ufo
<glyph name="parenleft" format="2">
  <advance width="686"/>
  <unicode hex="0028"/>
  <guideline x="413" y="1305" angle="329.7436"/>
  <guideline x="218" y="385" angle="205.5139"/>
  <outline>
    <contour>
      <point x="304" y="-230" type="curve"/>
      <point x="390" y="-190" type="line"/>
      <point x="334" y="-38"/>
      <point x="304" y="132"/>
      <point x="304" y="312" type="curve" smooth="yes"/>
      <point x="304" y="748"/>
      <point x="470" y="1252"/>
      <point x="774" y="1564" type="curve"/>
      <point x="694" y="1610" type="line"/>
      <point x="384" y="1272"/>
      <point x="204" y="790"/>
      <point x="204" y="328" type="curve" smooth="yes"/>
      <point x="204" y="132"/>
      <point x="236" y="-58"/>
    </contour>
  </outline>
</glyph>
<glyph name="parenright" format="2">
  <advance width="686"/>
  <unicode hex="0029"/>
  <outline>
    <contour>
      <point x="81" y="-230" type="line"/>
      <point x="391" y="108"/>
      <point x="571" y="590"/>
      <point x="571" y="1052" type="curve" smooth="yes"/>
      <point x="571" y="1248"/>
      <point x="539" y="1438"/>
      <point x="471" y="1610" type="curve"/>
      <point x="385" y="1570" type="line"/>
      <point x="441" y="1418"/>
      <point x="471" y="1248"/>
      <point x="471" y="1068" type="curve" smooth="yes"/>
      <point x="471" y="632"/>
      <point x="305" y="128"/>
      <point x="1" y="-184" type="curve"/>
    </contour>
  </outline>
</glyph>
<glyph name="comma" format="2">
  <advance width="504"/>
  <unicode hex="002C"/>
  <outline>
    <contour>
      <point x="-10" y="-246" type="line"/>
      <point x="134" y="-182"/>
      <point x="268" y="-72"/>
      <point x="268" y="68" type="curve" smooth="yes"/>
      <point x="268" y="140"/>
      <point x="226" y="178"/>
      <point x="164" y="178" type="curve" smooth="yes"/>
      <point x="102" y="178"/>
      <point x="56" y="137"/>
      <point x="56" y="75" type="curve" smooth="yes"/>
      <point x="56" y="24"/>
      <point x="94" y="-10"/>
      <point x="152" y="-13" type="curve"/>
      <point x="128" y="-64"/>
      <point x="54" y="-129"/>
      <point x="-53" y="-177" type="curve"/>
    </contour>
  </outline>
</glyph>
<glyph name="five" format="2">
  <advance width="1152"/>
  <unicode hex="0035"/>
  <outline>
    <contour>
      <point x="466" y="-30" type="curve" smooth="yes"/>
      <point x="772" y="-30"/>
      <point x="1014" y="180"/>
      <point x="1014" y="476" type="curve" smooth="yes"/>
      <point x="1014" y="714"/>
      <point x="822" y="858"/>
      <point x="568" y="858" type="curve" smooth="yes"/>
      <point x="502" y="858"/>
      <point x="432" y="846"/>
      <point x="360" y="826" type="curve"/>
      <point x="512" y="1292" type="line"/>
      <point x="1158" y="1292" type="line"/>
      <point x="1180" y="1400" type="line"/>
      <point x="444" y="1396" type="line"/>
      <point x="232" y="738" type="line"/>
      <point x="258" y="706" type="line"/>
      <point x="350" y="738"/>
      <point x="438" y="754"/>
      <point x="518" y="754" type="curve" smooth="yes"/>
      <point x="732" y="754"/>
      <point x="888" y="644"/>
      <point x="888" y="462" type="curve" smooth="yes"/>
      <point x="888" y="238"/>
      <point x="720" y="82"/>
      <point x="476" y="82" type="curve" smooth="yes"/>
      <point x="340" y="82"/>
      <point x="184" y="136"/>
      <point x="90" y="220" type="curve"/>
      <point x="22" y="118" type="line"/>
      <point x="112" y="34"/>
      <point x="291" y="-30"/>
    </contour>
  </outline>
</glyph>
<glyph name="equal" format="2">
  <advance width="1296"/>
  <unicode hex="003D"/>
  <outline>
    <contour>
      <point x="246" y="780" type="line"/>
      <point x="1182" y="780" type="line"/>
      <point x="1202" y="876" type="line"/>
      <point x="266" y="876" type="line"/>
    </contour>
    <contour>
      <point x="174" y="452" type="line"/>
      <point x="1110" y="452" type="line"/>
      <point x="1130" y="548" type="line"/>
      <point x="194" y="548" type="line"/>
    </contour>
  </outline>
</glyph>
<glyph name="greater" format="2">
  <advance width="1296"/>
  <unicode hex="003E"/>
  <guideline x="98" y="489" angle="67.7944"/>
  <guideline x="151" y="515" angle="66.1706"/>
  <guideline x="74" y="151" angle="110.9415"/>
  <outline>
    <contour>
      <point x="170" y="248" type="line"/>
      <point x="1146" y="620" type="line"/>
      <point x="1164" y="712" type="line"/>
      <point x="328" y="1082" type="line"/>
      <point x="284" y="982" type="line"/>
      <point x="1002" y="672" type="line"/>
      <point x="132" y="352" type="line"/>
    </contour>
  </outline>
</glyph>
<glyph name="N" format="2">
  <advance width="1454"/>
  <unicode hex="004E"/>
  <anchor x="626" y="0" name="bottom"/>
  <anchor x="922" y="1400" name="top"/>
  <outline>
    <contour>
      <point x="100" y="0" type="line"/>
      <point x="216" y="0" type="line"/>
      <point x="470" y="1198" type="line"/>
      <point x="1050" y="0" type="line"/>
      <point x="1152" y="0" type="line"/>
      <point x="1448" y="1400" type="line"/>
      <point x="1332" y="1400" type="line"/>
      <point x="1080" y="212" type="line"/>
      <point x="500" y="1400" type="line"/>
      <point x="396" y="1400" type="line"/>
    </contour>
  </outline>
</glyph>
<glyph name="O" format="2">
  <advance width="1696"/>
  <unicode hex="004F"/>
  <guideline x="481" y="687" angle="84.8978"/>
  <anchor x="783" y="0" name="bottom"/>
  <anchor x="1409" y="1400" name="horn"/>
  <anchor x="995" y="0" name="ogonek"/>
  <anchor x="1007" y="1400" name="top"/>
  <anchor x="347" y="1400" name="topleft"/>
  <outline>
    <contour>
      <point x="821" y="-30" type="curve" smooth="yes"/>
      <point x="1261" y="-30"/>
      <point x="1631" y="342"/>
      <point x="1631" y="782" type="curve" smooth="yes"/>
      <point x="1631" y="1148"/>
      <point x="1359" y="1430"/>
      <point x="967" y="1430" type="curve" smooth="yes"/>
      <point x="525" y="1430"/>
      <point x="159" y="1060"/>
      <point x="159" y="614" type="curve" smooth="yes"/>
      <point x="159" y="246"/>
      <point x="429" y="-30"/>
    </contour>
    <contour>
      <point x="833" y="82" type="curve" smooth="yes"/>
      <point x="515" y="82"/>
      <point x="281" y="296"/>
      <point x="281" y="620" type="curve" smooth="yes"/>
      <point x="281" y="1006"/>
      <point x="575" y="1318"/>
      <point x="957" y="1318" type="curve" smooth="yes"/>
      <point x="1279" y="1318"/>
      <point x="1509" y="1104"/>
      <point x="1509" y="780" type="curve" smooth="yes"/>
      <point x="1509" y="394"/>
      <point x="1215" y="82"/>
    </contour>
  </outline>
</glyph>
<glyph name="T" format="2">
  <advance width="1086"/>
  <unicode hex="0054"/>
  <anchor x="594" y="722" name="bar"/>
  <anchor x="442" y="0" name="bottom"/>
  <anchor x="738" y="1400" name="top"/>
  <outline>
    <contour>
      <point x="384" y="0" type="line"/>
      <point x="500" y="0" type="line"/>
      <point x="774" y="1292" type="line"/>
      <point x="1188" y="1292" type="line"/>
      <point x="1210" y="1400" type="line"/>
      <point x="266" y="1400" type="line"/>
      <point x="244" y="1292" type="line"/>
      <point x="658" y="1292" type="line"/>
    </contour>
  </outline>
</glyph>
<glyph name="Y" format="2">
  <advance width="1180"/>
  <unicode hex="0059"/>
  <anchor x="488" y="0" name="bottom"/>
  <anchor x="784" y="1400" name="top"/>
  <anchor x="176" y="1400" name="topleft"/>
  <outline>
    <contour>
      <point x="430" y="0" type="line"/>
      <point x="546" y="0" type="line"/>
      <point x="678" y="624" type="line"/>
      <point x="1342" y="1400" type="line"/>
      <point x="1200" y="1400" type="line"/>
      <point x="642" y="740" type="line"/>
      <point x="364" y="1400" type="line"/>
      <point x="230" y="1400" type="line"/>
      <point x="562" y="624" type="line"/>
    </contour>
  </outline>
</glyph>
<glyph name="backslash" format="2">
  <advance width="906"/>
  <unicode hex="005C"/>
  <guideline x="381" y="385" angle="11.5546"/>
  <guideline x="251" y="1305" angle="11.5546"/>
  <outline>
    <contour>
      <point x="634" y="-230" type="line"/>
      <point x="742" y="-208" type="line"/>
      <point x="366" y="1610" type="line"/>
      <point x="258" y="1588" type="line"/>
    </contour>
  </outline>
</glyph>
<glyph name="bracketright" format="2">
  <advance width="688"/>
  <unicode hex="005D"/>
  <outline>
    <contour>
      <point x="314" y="-220" type="line"/>
      <point x="700" y="1600" type="line"/>
      <point x="392" y="1600" type="line"/>
      <point x="370" y="1504" type="line"/>
      <point x="578" y="1504" type="line"/>
      <point x="234" y="-124" type="line"/>
      <point x="26" y="-124" type="line"/>
      <point x="6" y="-220" type="line"/>
    </contour>
  </outline>
</glyph>
<glyph name="c" format="2">
  <advance width="1016"/>
  <unicode hex="0063"/>
  <anchor x="486" y="0" name="bottom"/>
  <anchor x="650" y="960" name="top"/>
  <outline>
    <contour>
      <point x="550" y="-30" type="curve" smooth="yes"/>
      <point x="660" y="-30"/>
      <point x="764" y="6"/>
      <point x="864" y="68" type="curve"/>
      <point x="802" y="158" type="line"/>
      <point x="746" y="112"/>
      <point x="656" y="78"/>
      <point x="564" y="78" type="curve" smooth="yes"/>
      <point x="336" y="78"/>
      <point x="200" y="210"/>
      <point x="200" y="418" type="curve" smooth="yes"/>
      <point x="200" y="680"/>
      <point x="368" y="882"/>
      <point x="640" y="882" type="curve" smooth="yes"/>
      <point x="750" y="882"/>
      <point x="842" y="852"/>
      <point x="898" y="792" type="curve"/>
      <point x="982" y="880" type="line"/>
      <point x="898" y="956"/>
      <point x="798" y="990"/>
      <point x="670" y="990" type="curve" smooth="yes"/>
      <point x="338" y="990"/>
      <point x="80" y="744"/>
      <point x="80" y="416" type="curve" smooth="yes"/>
      <point x="80" y="158"/>
      <point x="262" y="-30"/>
    </contour>
  </outline>
</glyph>
<glyph name="e" format="2">
  <advance width="1108"/>
  <unicode hex="0065"/>
  <guideline x="921" y="572" angle="78"/>
  <anchor x="485" y="0" name="bottom"/>
  <anchor x="781" y="0" name="ogonek"/>
  <anchor x="653" y="960" name="top"/>
  <outline>
    <contour>
      <point x="551" y="-30" type="curve" smooth="yes"/>
      <point x="662" y="-30"/>
      <point x="787" y="0"/>
      <point x="889" y="66" type="curve"/>
      <point x="841" y="166" type="line"/>
      <point x="763" y="108"/>
      <point x="659" y="78"/>
      <point x="567" y="78" type="curve" smooth="yes"/>
      <point x="325" y="78"/>
      <point x="165" y="220"/>
      <point x="203" y="468" type="curve"/>
      <point x="1025" y="468" type="line"/>
      <point x="1093" y="750"/>
      <point x="935" y="990"/>
      <point x="633" y="990" type="curve" smooth="yes"/>
      <point x="321" y="990"/>
      <point x="77" y="720"/>
      <point x="77" y="404" type="curve" smooth="yes"/>
      <point x="77" y="144"/>
      <point x="265" y="-30"/>
    </contour>
    <contour>
      <point x="225" y="572" type="line"/>
      <point x="269" y="770"/>
      <point x="417" y="882"/>
      <point x="613" y="882" type="curve" smooth="yes"/>
      <point x="817" y="882"/>
      <point x="935" y="786"/>
      <point x="921" y="572" type="curve"/>
    </contour>
  </outline>
</glyph>
<glyph name="o" format="2">
  <advance width="1184"/>
  <unicode hex="006F"/>
  <guideline x="319" y="468" angle="82.614"/>
  <anchor x="516" y="0" name="bottom"/>
  <anchor x="1056" y="960" name="horn"/>
  <anchor x="732" y="0" name="ogonek"/>
  <anchor x="668" y="960" name="top"/>
  <outline>
    <contour>
      <point x="540" y="-30" type="curve" smooth="yes"/>
      <point x="844" y="-30"/>
      <point x="1104" y="232"/>
      <point x="1104" y="538" type="curve" smooth="yes"/>
      <point x="1104" y="786"/>
      <point x="922" y="990"/>
      <point x="644" y="990" type="curve" smooth="yes"/>
      <point x="342" y="990"/>
      <point x="80" y="728"/>
      <point x="80" y="424" type="curve" smooth="yes"/>
      <point x="80" y="172"/>
      <point x="262" y="-30"/>
    </contour>
    <contour>
      <point x="554" y="78" type="curve" smooth="yes"/>
      <point x="338" y="78"/>
      <point x="200" y="210"/>
      <point x="200" y="420" type="curve" smooth="yes"/>
      <point x="200" y="672"/>
      <point x="372" y="882"/>
      <point x="630" y="882" type="curve" smooth="yes"/>
      <point x="844" y="882"/>
      <point x="984" y="750"/>
      <point x="984" y="540" type="curve" smooth="yes"/>
      <point x="984" y="288"/>
      <point x="812" y="78"/>
    </contour>
  </outline>
</glyph>
<glyph name="u" format="2">
  <advance width="1143"/>
  <unicode hex="0075"/>
  <anchor x="453" y="0" name="bottom"/>
  <anchor x="871" y="0" name="descender"/>
  <anchor x="1075" y="960" name="horn"/>
  <anchor x="871" y="0" name="ogonek"/>
  <anchor x="665" y="960" name="top"/>
  <outline>
    <contour>
      <point x="441" y="-30" type="curve" smooth="yes"/>
      <point x="557" y="-30"/>
      <point x="683" y="12"/>
      <point x="783" y="120" type="curve"/>
      <point x="759" y="0" type="line"/>
      <point x="871" y="0" type="line"/>
      <point x="1075" y="960" type="line"/>
      <point x="963" y="960" type="line"/>
      <point x="841" y="390" type="line" smooth="yes"/>
      <point x="799" y="190"/>
      <point x="645" y="76"/>
      <point x="485" y="76" type="curve" smooth="yes"/>
      <point x="317" y="76"/>
      <point x="213" y="174"/>
      <point x="245" y="348" type="curve" smooth="yes"/>
      <point x="375" y="960" type="line"/>
      <point x="263" y="960" type="line"/>
      <point x="125" y="314" type="line" smooth="yes"/>
      <point x="87" y="122"/>
      <point x="223" y="-30"/>
    </contour>
  </outline>
</glyph>
<glyph name="bar" format="2">
  <advance width="503"/>
  <unicode hex="007C"/>
  <outline>
    <contour>
      <point x="52" y="-220" type="line"/>
      <point x="152" y="-220" type="line"/>
      <point x="540" y="1600" type="line"/>
      <point x="440" y="1600" type="line"/>
    </contour>
  </outline>
</glyph>
<glyph name="cent" format="2">
  <advance width="1296"/>
  <unicode hex="00A2"/>
  <outline>
    <contour>
      <point x="518" y="-160" type="line"/>
      <point x="618" y="-160" type="line"/>
      <point x="652" y="0" type="line"/>
      <point x="774" y="-2"/>
      <point x="884" y="34"/>
      <point x="990" y="106" type="curve"/>
      <point x="922" y="178" type="line"/>
      <point x="866" y="130"/>
      <point x="770" y="96"/>
      <point x="672" y="98" type="curve"/>
      <point x="832" y="852" type="line"/>
      <point x="902" y="842"/>
      <point x="958" y="816"/>
      <point x="1002" y="776" type="curve"/>
      <point x="1086" y="844" type="line"/>
      <point x="1018" y="906"/>
      <point x="946" y="936"/>
      <point x="854" y="948" type="curve"/>
      <point x="890" y="1120" type="line"/>
      <point x="790" y="1120" type="line"/>
      <point x="754" y="952" type="line"/>
      <point x="452" y="940"/>
      <point x="222" y="708"/>
      <point x="222" y="416" type="curve" smooth="yes"/>
      <point x="222" y="206"/>
      <point x="356" y="54"/>
      <point x="554" y="12" type="curve"/>
    </contour>
    <contour>
      <point x="574" y="108" type="line"/>
      <point x="416" y="144"/>
      <point x="328" y="250"/>
      <point x="328" y="418" type="curve" smooth="yes"/>
      <point x="328" y="666"/>
      <point x="480" y="852"/>
      <point x="734" y="858" type="curve"/>
    </contour>
  </outline>
</glyph>
<glyph name="yen" format="2">
  <advance width="1296"/>
  <unicode hex="00A5"/>
  <outline>
    <contour>
      <point x="486" y="0" type="line"/>
      <point x="598" y="0" type="line"/>
      <point x="664" y="318" type="line"/>
      <point x="1058" y="318" type="line"/>
      <point x="1080" y="418" type="line"/>
      <point x="686" y="418" type="line"/>
      <point x="730" y="626" type="line"/>
      <point x="1124" y="626" type="line"/>
      <point x="1146" y="726" type="line"/>
      <point x="824" y="726" type="line"/>
      <point x="1400" y="1400" type="line"/>
      <point x="1270" y="1400" type="line"/>
      <point x="694" y="732" type="line"/>
      <point x="420" y="1400" type="line"/>
      <point x="298" y="1400" type="line"/>
      <point x="568" y="726" type="line"/>
      <point x="246" y="726" type="line"/>
      <point x="224" y="626" type="line"/>
      <point x="618" y="626" type="line"/>
      <point x="574" y="418" type="line"/>
      <point x="180" y="418" type="line"/>
      <point x="158" y="318" type="line"/>
      <point x="552" y="318" type="line"/>
    </contour>
  </outline>
</glyph>
<glyph name="section" format="2">
  <advance width="1211"/>
  <unicode hex="00A7"/>
  <outline>
    <contour>
      <point x="436" y="-450" type="curve" smooth="yes"/>
      <point x="688" y="-450"/>
      <point x="890" y="-304"/>
      <point x="890" y="-64" type="curve" smooth="yes"/>
      <point x="890" y="88"/>
      <point x="782" y="168"/>
      <point x="588" y="238" type="curve" smooth="yes"/>
      <point x="414" y="300"/>
      <point x="302" y="362"/>
      <point x="302" y="494" type="curve" smooth="yes"/>
      <point x="302" y="674"/>
      <point x="480" y="772"/>
      <point x="704" y="772" type="curve"/>
      <point x="726" y="860" type="line"/>
      <point x="474" y="892"/>
      <point x="196" y="726"/>
      <point x="196" y="470" type="curve" smooth="yes"/>
      <point x="196" y="318"/>
      <point x="302" y="220"/>
      <point x="504" y="142" type="curve" smooth="yes"/>
      <point x="700" y="66"/>
      <point x="778" y="16"/>
      <point x="778" y="-90" type="curve" smooth="yes"/>
      <point x="778" y="-250"/>
      <point x="640" y="-346"/>
      <point x="450" y="-346" type="curve" smooth="yes"/>
      <point x="316" y="-346"/>
      <point x="178" y="-296"/>
      <point x="96" y="-194" type="curve"/>
      <point x="10" y="-284" type="line"/>
      <point x="92" y="-374"/>
      <point x="256" y="-450"/>
    </contour>
    <contour>
      <point x="554" y="148" type="line"/>
      <point x="828" y="134"/>
      <point x="1072" y="296"/>
      <point x="1072" y="550" type="curve" smooth="yes"/>
      <point x="1072" y="704"/>
      <point x="950" y="792"/>
      <point x="762" y="860" type="curve" smooth="yes"/>
      <point x="582" y="924"/>
      <point x="476" y="968"/>
      <point x="476" y="1088" type="curve" smooth="yes"/>
      <point x="476" y="1236"/>
      <point x="600" y="1328"/>
      <point x="770" y="1328" type="curve" smooth="yes"/>
      <point x="912" y="1328"/>
      <point x="1036" y="1276"/>
      <point x="1114" y="1182" type="curve"/>
      <point x="1192" y="1276" type="line"/>
      <point x="1098" y="1376"/>
      <point x="964" y="1430"/>
      <point x="798" y="1430" type="curve" smooth="yes"/>
      <point x="566" y="1430"/>
      <point x="372" y="1280"/>
      <point x="372" y="1062" type="curve" smooth="yes"/>
      <point x="372" y="924"/>
      <point x="470" y="840"/>
      <point x="670" y="764" type="curve" smooth="yes"/>
      <point x="866" y="690"/>
      <point x="956" y="644"/>
      <point x="956" y="538" type="curve" smooth="yes"/>
      <point x="956" y="350"/>
      <point x="788" y="224"/>
      <point x="572" y="234" type="curve"/>
    </contour>
  </outline>
</glyph>
<glyph name="threesuperior" format="2">
  <advance width="816"/>
  <unicode hex="00B3"/>
  <outline>
    <contour>
      <point x="456" y="702" type="curve" smooth="yes"/>
      <point x="656" y="702"/>
      <point x="816" y="832"/>
      <point x="816" y="1016" type="curve" smooth="yes"/>
      <point x="816" y="1168"/>
      <point x="680" y="1246"/>
      <point x="516" y="1254" type="curve"/>
      <point x="890" y="1548" type="line"/>
      <point x="906" y="1632" type="line"/>
      <point x="330" y="1632" type="line"/>
      <point x="310" y="1540" type="line"/>
      <point x="748" y="1540" type="line"/>
      <point x="366" y="1238" type="line"/>
      <point x="382" y="1174" type="line"/>
      <point x="406" y="1178"/>
      <point x="436" y="1180"/>
      <point x="462" y="1180" type="curve" smooth="yes"/>
      <point x="614" y="1180"/>
      <point x="708" y="1116"/>
      <point x="708" y="1012" type="curve" smooth="yes"/>
      <point x="708" y="882"/>
      <point x="604" y="798"/>
      <point x="460" y="798" type="curve" smooth="yes"/>
      <point x="362" y="798"/>
      <point x="266" y="836"/>
      <point x="210" y="888" type="curve"/>
      <point x="156" y="804" type="line"/>
      <point x="213" y="746"/>
      <point x="340" y="702"/>
    </contour>
  </outline>
</glyph>
<glyph name="caroncomb" format="2">
  <unicode hex="030C"/>
  <anchor x="-666" y="960" name="_top"/>
  <outline>
    <contour>
      <point x="-688" y="1170" type="line"/>
      <point x="-568" y="1170" type="line"/>
      <point x="-234" y="1504" type="line"/>
      <point x="-362" y="1504" type="line"/>
      <point x="-618" y="1248" type="line"/>
      <point x="-748" y="1504" type="line"/>
      <point x="-860" y="1504" type="line"/>
    </contour>
  </outline>
</glyph>
<glyph name="dieresisbelowcomb" format="2">
  <unicode hex="0324"/>
  <anchor x="-524" y="0" name="_bottom"/>
  <outline>
    <contour>
      <point x="-782" y="-390" type="curve" smooth="yes"/>
      <point x="-728" y="-390"/>
      <point x="-674" y="-342"/>
      <point x="-674" y="-286" type="curve" smooth="yes"/>
      <point x="-674" y="-240"/>
      <point x="-710" y="-202"/>
      <point x="-758" y="-202" type="curve" smooth="yes"/>
      <point x="-812" y="-202"/>
      <point x="-866" y="-250"/>
      <point x="-866" y="-306" type="curve" smooth="yes"/>
      <point x="-866" y="-350"/>
      <point x="-830" y="-390"/>
    </contour>
    <contour>
      <point x="-418" y="-390" type="curve" smooth="yes"/>
      <point x="-364" y="-390"/>
      <point x="-310" y="-342"/>
      <point x="-310" y="-286" type="curve" smooth="yes"/>
      <point x="-310" y="-240"/>
      <point x="-346" y="-202"/>
      <point x="-394" y="-202" type="curve" smooth="yes"/>
      <point x="-448" y="-202"/>
      <point x="-502" y="-250"/>
      <point x="-502" y="-306" type="curve" smooth="yes"/>
      <point x="-502" y="-350"/>
      <point x="-466" y="-390"/>
    </contour>
  </outline>
</glyph>
<glyph name="lowernumeral-greek" format="2">
  <advance width="421"/>
  <unicode hex="0375"/>
  <outline>
    <contour>
      <point x="-129" y="-420" type="line"/>
      <point x="-19" y="-420" type="line"/>
      <point x="159" y="-12" type="line"/>
      <point x="71" y="-12" type="line"/>
    </contour>
  </outline>
</glyph>
<glyph name="tonos" format="2">
  <advance width="454"/>
  <unicode hex="0384"/>
  <guideline x="302" y="960" angle="78"/>
  <anchor x="302" y="960" name="_top"/>
  <outline>
    <contour>
      <point x="284" y="1170" type="line"/>
      <point x="392" y="1170" type="line"/>
      <point x="606" y="1504" type="line"/>
      <point x="486" y="1504" type="line"/>
    </contour>
  </outline>
</glyph>
<glyph name="gamma" format="2">
  <advance width="1028"/>
  <unicode hex="03B3"/>
  <outline>
    <contour>
      <point x="254" y="-420" type="line"/>
      <point x="366" y="-420" type="line"/>
      <point x="458" y="12" type="line"/>
      <point x="681" y="244"/>
      <point x="896" y="562"/>
      <point x="1053" y="958" type="curve"/>
      <point x="928" y="980" type="line"/>
      <point x="788" y="590"/>
      <point x="587" y="299"/>
      <point x="406" y="104" type="curve"/>
      <point x="436" y="104" type="line"/>
      <point x="266" y="960" type="line"/>
      <point x="144" y="960" type="line"/>
      <point x="342" y="-6" type="line"/>
    </contour>
  </outline>
</glyph>
<glyph name="kappa" format="2">
  <advance width="1056"/>
  <unicode hex="03BA"/>
  <outline>
    <contour>
      <point x="68" y="0" type="line"/>
      <point x="180" y="0" type="line"/>
      <point x="252" y="340" type="line"/>
      <point x="486" y="526" type="line"/>
      <point x="730" y="0" type="line"/>
      <point x="864" y="0" type="line"/>
      <point x="578" y="598" type="line"/>
      <point x="658" y="664" type="line" smooth="yes"/>
      <point x="832" y="808"/>
      <point x="920" y="888"/>
      <point x="1018" y="866" type="curve"/>
      <point x="1018" y="972" type="line"/>
      <point x="906" y="996"/>
      <point x="788" y="898"/>
      <point x="590" y="738" type="curve" smooth="yes"/>
      <point x="284" y="492" type="line"/>
      <point x="384" y="960" type="line"/>
      <point x="272" y="960" type="line"/>
    </contour>
  </outline>
</glyph>
<glyph name="xi" format="2">
  <advance width="886"/>
  <unicode hex="03BE"/>
  <outline>
    <contour>
      <point x="551" y="-436" type="line"/>
      <point x="650" y="-331"/>
      <point x="702" y="-227"/>
      <point x="702" y="-134" type="curve" smooth="yes"/>
      <point x="702" y="140"/>
      <point x="204" y="151"/>
      <point x="204" y="455" type="curve" smooth="yes"/>
      <point x="204" y="642"/>
      <point x="371" y="763"/>
      <point x="627" y="763" type="curve" smooth="yes"/>
      <point x="812" y="763" type="line"/>
      <point x="833" y="867" type="line"/>
      <point x="659" y="867" type="line" smooth="yes"/>
      <point x="506" y="867"/>
      <point x="394" y="967"/>
      <point x="394" y="1103" type="curve" smooth="yes"/>
      <point x="394" y="1264"/>
      <point x="517" y="1364"/>
      <point x="715" y="1364" type="curve" smooth="yes"/>
      <point x="827" y="1364"/>
      <point x="934" y="1340"/>
      <point x="1006" y="1299" type="curve"/>
      <point x="1068" y="1398" type="line"/>
      <point x="975" y="1444"/>
      <point x="853" y="1470"/>
      <point x="731" y="1470" type="curve" smooth="yes"/>
      <point x="460" y="1470"/>
      <point x="271" y="1315"/>
      <point x="271" y="1092" type="curve" smooth="yes"/>
      <point x="271" y="978"/>
      <point x="331" y="885"/>
      <point x="443" y="824" type="curve"/>
      <point x="215" y="772"/>
      <point x="80" y="631"/>
      <point x="80" y="442" type="curve" smooth="yes"/>
      <point x="80" y="80"/>
      <point x="583" y="46"/>
      <point x="583" y="-168" type="curve" smooth="yes"/>
      <point x="583" y="-227"/>
      <point x="538" y="-307"/>
      <point x="449" y="-400" type="curve"/>
    </contour>
  </outline>
</glyph>
<glyph name="sigmafinal" format="2">
  <advance width="976"/>
  <unicode hex="03C2"/>
  <outline>
    <contour>
      <point x="560" y="-436" type="line"/>
      <point x="659" y="-331"/>
      <point x="711" y="-227"/>
      <point x="711" y="-134" type="curve" smooth="yes"/>
      <point x="711" y="141"/>
      <point x="209" y="132"/>
      <point x="209" y="468" type="curve" smooth="yes"/>
      <point x="209" y="697"/>
      <point x="362" y="882"/>
      <point x="609" y="882" type="curve" smooth="yes"/>
      <point x="736" y="882"/>
      <point x="842" y="852"/>
      <point x="907" y="792" type="curve"/>
      <point x="991" y="880" type="line"/>
      <point x="896" y="956"/>
      <point x="783" y="990"/>
      <point x="639" y="990" type="curve" smooth="yes"/>
      <point x="330" y="990"/>
      <point x="89" y="761"/>
      <point x="89" y="466" type="curve" smooth="yes"/>
      <point x="89" y="66"/>
      <point x="592" y="51"/>
      <point x="592" y="-168" type="curve" smooth="yes"/>
      <point x="592" y="-227"/>
      <point x="547" y="-307"/>
      <point x="458" y="-400" type="curve"/>
    </contour>
  </outline>
</glyph>
<glyph name="upsilon" format="2">
  <advance width="1057"/>
  <unicode hex="03C5"/>
  <anchor x="605" y="960" name="top"/>
  <outline>
    <contour>
      <point x="431" y="-30" type="curve" smooth="yes"/>
      <point x="750" y="-30"/>
      <point x="943" y="224"/>
      <point x="943" y="582" type="curve" smooth="yes"/>
      <point x="943" y="717"/>
      <point x="912" y="856"/>
      <point x="850" y="993" type="curve"/>
      <point x="739" y="935" type="line"/>
      <point x="795" y="823"/>
      <point x="824" y="705"/>
      <point x="823" y="585" type="curve" smooth="yes"/>
      <point x="821" y="298"/>
      <point x="697" y="80"/>
      <point x="439" y="80" type="curve" smooth="yes"/>
      <point x="277" y="80"/>
      <point x="197" y="170"/>
      <point x="247" y="402" type="curve" smooth="yes"/>
      <point x="365" y="960" type="line"/>
      <point x="253" y="960" type="line"/>
      <point x="127" y="374" type="line" smooth="yes"/>
      <point x="73" y="122"/>
      <point x="207" y="-30"/>
    </contour>
  </outline>
</glyph>
<glyph name="psi" format="2">
  <advance width="1355"/>
  <unicode hex="03C8"/>
  <outline>
    <contour>
      <point x="432" y="-420" type="line"/>
      <point x="544" y="-420" type="line"/>
      <point x="632" y="0" type="line"/>
      <point x="1014" y="0"/>
      <point x="1246" y="242"/>
      <point x="1246" y="582" type="curve" smooth="yes"/>
      <point x="1246" y="717"/>
      <point x="1215" y="856"/>
      <point x="1153" y="993" type="curve"/>
      <point x="1042" y="935" type="line"/>
      <point x="1098" y="823"/>
      <point x="1127" y="705"/>
      <point x="1126" y="585" type="curve" smooth="yes"/>
      <point x="1123" y="314"/>
      <point x="972" y="108"/>
      <point x="656" y="108" type="curve"/>
      <point x="904" y="1280" type="line"/>
      <point x="792" y="1280" type="line"/>
      <point x="544" y="108" type="line"/>
      <point x="264" y="120"/>
      <point x="216" y="264"/>
      <point x="274" y="536" type="curve" smooth="yes"/>
      <point x="364" y="960" type="line"/>
      <point x="252" y="960" type="line"/>
      <point x="162" y="536" type="line" smooth="yes"/>
      <point x="100" y="242"/>
      <point x="154" y="14"/>
      <point x="520" y="0" type="curve"/>
    </contour>
  </outline>
</glyph>
<glyph name="omega" format="2">
  <advance width="1538"/>
  <unicode hex="03C9"/>
  <anchor x="667" y="0" name="bottom"/>
  <anchor x="869" y="960" name="top"/>
  <outline>
    <contour>
      <point x="389" y="-30" type="curve" smooth="yes"/>
      <point x="507" y="-30"/>
      <point x="630" y="36"/>
      <point x="706" y="182" type="curve"/>
      <point x="725" y="58"/>
      <point x="850" y="-30"/>
      <point x="987" y="-30" type="curve" smooth="yes"/>
      <point x="1258" y="-30"/>
      <point x="1424" y="267"/>
      <point x="1425" y="582" type="curve" smooth="yes"/>
      <point x="1425" y="717"/>
      <point x="1394" y="856"/>
      <point x="1332" y="993" type="curve"/>
      <point x="1221" y="935" type="line"/>
      <point x="1277" y="823"/>
      <point x="1306" y="705"/>
      <point x="1305" y="585" type="curve" smooth="yes"/>
      <point x="1304" y="340"/>
      <point x="1200" y="80"/>
      <point x="988" y="80" type="curve" smooth="yes"/>
      <point x="807" y="80"/>
      <point x="765" y="218"/>
      <point x="816" y="418" type="curve" smooth="yes"/>
      <point x="874" y="694" type="line"/>
      <point x="754" y="694" type="line"/>
      <point x="696" y="418" type="line" smooth="yes"/>
      <point x="649" y="205"/>
      <point x="571" y="81"/>
      <point x="422" y="81" type="curve" smooth="yes"/>
      <point x="281" y="81"/>
      <point x="220" y="184"/>
      <point x="221" y="335" type="curve" smooth="yes"/>
      <point x="221" y="554"/>
      <point x="332" y="781"/>
      <point x="507" y="935" type="curve"/>
      <point x="420" y="993" type="line"/>
      <point x="230" y="830"/>
      <point x="100" y="578"/>
      <point x="100" y="334" type="curve" smooth="yes"/>
      <point x="99" y="125"/>
      <point x="198" y="-30"/>
    </contour>
  </outline>
</glyph>
<glyph name="kaiSymbol" format="2">
  <advance width="1056"/>
  <unicode hex="03D7"/>
  <outline>
    <contour>
      <point x="416" y="-240" type="line"/>
      <point x="566" y="-266"/>
      <point x="676" y="-156"/>
      <point x="864" y="0" type="curve"/>
      <point x="578" y="598" type="line"/>
      <point x="658" y="664" type="line" smooth="yes"/>
      <point x="832" y="808"/>
      <point x="920" y="888"/>
      <point x="1018" y="866" type="curve"/>
      <point x="1018" y="972" type="line"/>
      <point x="906" y="996"/>
      <point x="788" y="898"/>
      <point x="590" y="738" type="curve" smooth="yes"/>
      <point x="284" y="492" type="line"/>
      <point x="384" y="960" type="line"/>
      <point x="272" y="960" type="line"/>
      <point x="68" y="0" type="line"/>
      <point x="180" y="0" type="line"/>
      <point x="252" y="340" type="line"/>
      <point x="486" y="526" type="line"/>
      <point x="724" y="14" type="line"/>
      <point x="610" y="-80"/>
      <point x="530" y="-150"/>
      <point x="436" y="-130" type="curve"/>
    </contour>
  </outline>
</glyph>
<glyph name="Pe-cy" format="2">
  <advance width="1438"/>
  <unicode hex="041F"/>
  <anchor x="914" y="1400" name="top"/>
  <outline>
    <contour>
      <point x="100" y="0" type="line"/>
      <point x="216" y="0" type="line"/>
      <point x="490" y="1292" type="line"/>
      <point x="1294" y="1292" type="line"/>
      <point x="1020" y="0" type="line"/>
      <point x="1136" y="0" type="line"/>
      <point x="1432" y="1400" type="line"/>
      <point x="396" y="1400" type="line"/>
    </contour>
  </outline>
</glyph>
<glyph name="Yeru-cy" format="2">
  <advance width="1654"/>
  <unicode hex="042B"/>
  <guideline x="512" y="700" angle="180"/>
  <anchor x="728" y="0" name="bottom"/>
  <anchor x="1024" y="1400" name="top"/>
  <outline>
    <contour>
      <point x="100" y="0" type="line"/>
      <point x="592" y="0" type="line" smooth="yes"/>
      <point x="898" y="0"/>
      <point x="1098" y="180"/>
      <point x="1100" y="434" type="curve" smooth="yes"/>
      <point x="1102" y="656"/>
      <point x="934" y="796"/>
      <point x="656" y="796" type="curve" smooth="yes"/>
      <point x="384" y="796" type="line"/>
      <point x="514" y="1400" type="line"/>
      <point x="396" y="1400" type="line"/>
    </contour>
    <contour>
      <point x="238" y="108" type="line"/>
      <point x="362" y="688" type="line"/>
      <point x="642" y="688" type="line" smooth="yes"/>
      <point x="878" y="688"/>
      <point x="988" y="596"/>
      <point x="986" y="420" type="curve" smooth="yes"/>
      <point x="984" y="216"/>
      <point x="842" y="108"/>
      <point x="596" y="108" type="curve" smooth="yes"/>
    </contour>
    <contour>
      <point x="1236" y="0" type="line"/>
      <point x="1352" y="0" type="line"/>
      <point x="1648" y="1400" type="line"/>
      <point x="1532" y="1400" type="line"/>
    </contour>
  </outline>
</glyph>
<glyph name="Iu-cy" format="2">
  <advance width="2241"/>
  <unicode hex="042E"/>
  <guideline x="383" y="349" angle="78"/>
  <guideline x="643" y="546" angle="160.8535"/>
  <anchor x="1350" y="1400" name="top"/>
  <outline>
    <contour>
      <point x="100" y="0" type="line"/>
      <point x="216" y="0" type="line"/>
      <point x="364" y="698" type="line"/>
      <point x="780" y="698" type="line"/>
      <point x="802" y="806" type="line"/>
      <point x="386" y="806" type="line"/>
      <point x="512" y="1400" type="line"/>
      <point x="396" y="1400" type="line"/>
    </contour>
    <contour>
      <point x="1366" y="-30" type="curve" smooth="yes"/>
      <point x="1806" y="-30"/>
      <point x="2176" y="342"/>
      <point x="2176" y="782" type="curve" smooth="yes"/>
      <point x="2176" y="1148"/>
      <point x="1904" y="1430"/>
      <point x="1512" y="1430" type="curve" smooth="yes"/>
      <point x="1070" y="1430"/>
      <point x="704" y="1060"/>
      <point x="704" y="614" type="curve" smooth="yes"/>
      <point x="704" y="246"/>
      <point x="974" y="-30"/>
    </contour>
    <contour>
      <point x="1378" y="82" type="curve" smooth="yes"/>
      <point x="1060" y="82"/>
      <point x="826" y="296"/>
      <point x="826" y="620" type="curve" smooth="yes"/>
      <point x="826" y="1006"/>
      <point x="1120" y="1318"/>
      <point x="1502" y="1318" type="curve" smooth="yes"/>
      <point x="1824" y="1318"/>
      <point x="2054" y="1104"/>
      <point x="2054" y="780" type="curve" smooth="yes"/>
      <point x="2054" y="394"/>
      <point x="1760" y="82"/>
    </contour>
  </outline>
</glyph>
<glyph name="de-cy" format="2">
  <advance width="1254"/>
  <unicode hex="0434"/>
  <outline>
    <contour>
      <point x="792" y="0" type="line"/>
      <point x="904" y="0" type="line"/>
      <point x="1108" y="960" type="line"/>
      <point x="378" y="960" type="line"/>
      <point x="314" y="664" type="line" smooth="yes"/>
      <point x="234" y="294"/>
      <point x="172" y="152"/>
      <point x="-40" y="98" type="curve"/>
      <point x="-8" y="30" type="line"/>
      <point x="256" y="92"/>
      <point x="340" y="258"/>
      <point x="426" y="664" type="curve" smooth="yes"/>
      <point x="468" y="856" type="line"/>
      <point x="974" y="856" type="line"/>
    </contour>
    <contour>
      <point x="-124" y="-300" type="line"/>
      <point x="-20" y="-300" type="line"/>
      <point x="44" y="0" type="line"/>
      <point x="996" y="0" type="line"/>
      <point x="932" y="-300" type="line"/>
      <point x="1036" y="-300" type="line"/>
      <point x="1122" y="104" type="line"/>
      <point x="80" y="104" type="line"/>
      <point x="60" y="84" type="line"/>
      <point x="-40" y="98" type="line"/>
    </contour>
  </outline>
</glyph>
<glyph name="el-cy" format="2">
  <advance width="1154"/>
  <unicode hex="043B"/>
  <outline>
    <contour>
      <point x="14" y="-10" type="line"/>
      <point x="236" y="64"/>
      <point x="332" y="232"/>
      <point x="424" y="664" type="curve" smooth="yes"/>
      <point x="464" y="856" type="line"/>
      <point x="950" y="856" type="line"/>
      <point x="770" y="0" type="line"/>
      <point x="882" y="0" type="line"/>
      <point x="1084" y="960" type="line"/>
      <point x="374" y="960" type="line"/>
      <point x="312" y="664" type="line" smooth="yes"/>
      <point x="234" y="290"/>
      <point x="180" y="150"/>
      <point x="-30" y="98" type="curve"/>
    </contour>
  </outline>
</glyph>
<glyph name="en-cy" format="2">
  <advance width="1166"/>
  <unicode hex="043D"/>
  <anchor x="894" y="0" name="descender"/>
  <anchor x="684" y="960" name="top"/>
  <outline>
    <contour>
      <point x="68" y="0" type="line"/>
      <point x="180" y="0" type="line"/>
      <point x="278" y="460" type="line"/>
      <point x="880" y="460" type="line"/>
      <point x="782" y="0" type="line"/>
      <point x="894" y="0" type="line"/>
      <point x="1098" y="960" type="line"/>
      <point x="986" y="960" type="line"/>
      <point x="902" y="564" type="line"/>
      <point x="300" y="564" type="line"/>
      <point x="384" y="960" type="line"/>
      <point x="272" y="960" type="line"/>
    </contour>
  </outline>
</glyph>
<glyph name="te-cy" format="2">
  <advance width="932"/>
  <unicode hex="0442"/>
  <anchor x="468" y="486" name="bar"/>
  <anchor x="364" y="0" name="bottom"/>
  <anchor x="568" y="960" name="top"/>
  <outline>
    <contour>
      <point x="308" y="0" type="line"/>
      <point x="420" y="0" type="line"/>
      <point x="602" y="856" type="line"/>
      <point x="960" y="856" type="line"/>
      <point x="982" y="960" type="line"/>
      <point x="154" y="960" type="line"/>
      <point x="132" y="856" type="line"/>
      <point x="490" y="856" type="line"/>
    </contour>
  </outline>
</glyph>
<glyph name="ereversed-cy" format="2">
  <advance width="999"/>
  <unicode hex="044D"/>
  <anchor x="322" y="0" name="bottom"/>
  <anchor x="522" y="960" name="top"/>
  <outline>
    <contour>
      <point x="360" y="-30" type="curve" smooth="yes"/>
      <point x="690" y="-30"/>
      <point x="920" y="240"/>
      <point x="920" y="548" type="curve" smooth="yes"/>
      <point x="920" y="822"/>
      <point x="736" y="990"/>
      <point x="466" y="990" type="curve" smooth="yes"/>
      <point x="355" y="990"/>
      <point x="225" y="948"/>
      <point x="154" y="896" type="curve"/>
      <point x="194" y="806" type="line"/>
      <point x="263" y="852"/>
      <point x="353" y="884"/>
      <point x="444" y="884" type="curve" smooth="yes"/>
      <point x="669" y="884"/>
      <point x="802" y="760"/>
      <point x="802" y="546" type="curve" smooth="yes"/>
      <point x="802" y="304"/>
      <point x="640" y="78"/>
      <point x="372" y="78" type="curve" smooth="yes"/>
      <point x="261" y="78"/>
      <point x="141" y="122"/>
      <point x="68" y="198" type="curve"/>
      <point x="-14" y="112" type="line"/>
      <point x="71" y="18"/>
      <point x="227" y="-30"/>
    </contour>
    <contour>
      <point x="186" y="440" type="line"/>
      <point x="806" y="440" type="line"/>
      <point x="828" y="544" type="line"/>
      <point x="208" y="544" type="line"/>
    </contour>
  </outline>
</glyph>
<glyph name="fita-cy" format="2">
  <advance width="1184"/>
  <unicode hex="0473"/>
  <outline>
    <contour>
      <point x="540" y="-30" type="curve" smooth="yes"/>
      <point x="844" y="-30"/>
      <point x="1104" y="232"/>
      <point x="1104" y="538" type="curve" smooth="yes"/>
      <point x="1104" y="786"/>
      <point x="922" y="990"/>
      <point x="644" y="990" type="curve" smooth="yes"/>
      <point x="342" y="990"/>
      <point x="80" y="728"/>
      <point x="80" y="424" type="curve" smooth="yes"/>
      <point x="80" y="172"/>
      <point x="262" y="-30"/>
    </contour>
    <contour>
      <point x="554" y="78" type="curve" smooth="yes"/>
      <point x="338" y="78"/>
      <point x="200" y="210"/>
      <point x="200" y="420" type="curve" smooth="yes"/>
      <point x="200" y="672"/>
      <point x="372" y="882"/>
      <point x="630" y="882" type="curve" smooth="yes"/>
      <point x="844" y="882"/>
      <point x="984" y="750"/>
      <point x="984" y="540" type="curve" smooth="yes"/>
      <point x="984" y="288"/>
      <point x="812" y="78"/>
    </contour>
    <contour>
      <point x="788" y="406" type="curve" smooth="yes"/>
      <point x="890" y="406"/>
      <point x="952" y="418"/>
      <point x="1024" y="460" type="curve"/>
      <point x="1040" y="544" type="line"/>
      <point x="974" y="518"/>
      <point x="912" y="510"/>
      <point x="850" y="510" type="curve" smooth="yes"/>
      <point x="682" y="510"/>
      <point x="548" y="578"/>
      <point x="402" y="578" type="curve" smooth="yes"/>
      <point x="300" y="578"/>
      <point x="238" y="566"/>
      <point x="166" y="524" type="curve"/>
      <point x="150" y="440" type="line"/>
      <point x="216" y="466"/>
      <point x="278" y="474"/>
      <point x="340" y="474" type="curve" smooth="yes"/>
      <point x="508" y="474"/>
      <point x="642" y="406"/>
    </contour>
  </outline>
</glyph>
<glyph name="Ghemiddlehook-cy" format="2">
  <advance width="1293"/>
  <unicode hex="0494"/>
  <outline>
    <contour>
      <point x="100" y="0" type="line"/>
      <point x="218" y="0" type="line"/>
      <point x="490" y="1292" type="line"/>
      <point x="1182" y="1292" type="line"/>
      <point x="1204" y="1400" type="line"/>
      <point x="396" y="1400" type="line"/>
    </contour>
    <contour>
      <point x="638" y="-272" type="line"/>
      <point x="954" y="-198"/>
      <point x="1180" y="82"/>
      <point x="1180" y="394" type="curve" smooth="yes"/>
      <point x="1180" y="702"/>
      <point x="964" y="846"/>
      <point x="690" y="846" type="curve" smooth="yes"/>
      <point x="574" y="846"/>
      <point x="446" y="820"/>
      <point x="308" y="766" type="curve"/>
      <point x="286" y="660" type="line"/>
      <point x="416" y="712"/>
      <point x="538" y="736"/>
      <point x="658" y="736" type="curve" smooth="yes"/>
      <point x="884" y="736"/>
      <point x="1064" y="636"/>
      <point x="1064" y="376" type="curve" smooth="yes"/>
      <point x="1064" y="124"/>
      <point x="874" y="-112"/>
      <point x="606" y="-182" type="curve"/>
    </contour>
  </outline>
</glyph>
<glyph name="Kabashkir-cy" format="2">
  <advance width="1600"/>
  <unicode hex="04A0"/>
  <anchor x="1316" y="0" name="descender"/>
  <anchor x="1094" y="1400" name="top"/>
  <outline>
    <contour>
      <point x="658" y="1292" type="line"/>
      <point x="796" y="1400" type="line"/>
      <point x="266" y="1400" type="line"/>
      <point x="244" y="1292" type="line"/>
    </contour>
    <component base="Ka-cy" xOffset="284"/>
  </outline>
</glyph>
<glyph name="enghe-cy" format="2">
  <advance width="1546"/>
  <unicode hex="04A5"/>
  <outline>
    <contour>
      <point x="72" y="0" type="line"/>
      <point x="184" y="0" type="line"/>
      <point x="278" y="460" type="line"/>
      <point x="882" y="460" type="line"/>
      <point x="786" y="0" type="line"/>
      <point x="898" y="0" type="line"/>
      <point x="1078" y="856" type="line"/>
      <point x="1568" y="856" type="line"/>
      <point x="1590" y="960" type="line"/>
      <point x="986" y="960" type="line"/>
      <point x="904" y="564" type="line"/>
      <point x="300" y="564" type="line"/>
      <point x="384" y="960" type="line"/>
      <point x="272" y="960" type="line"/>
    </contour>
  </outline>
</glyph>
<glyph name="Shha-cy" format="2">
  <advance width="1330"/>
  <unicode hex="04BA"/>
  <outline>
    <contour>
      <point x="100" y="0" type="line"/>
      <point x="216" y="0" type="line"/>
      <point x="364" y="700" type="line"/>
      <point x="480" y="730"/>
      <point x="594" y="748"/>
      <point x="742" y="748" type="curve" smooth="yes"/>
      <point x="1004" y="748"/>
      <point x="1130" y="638"/>
      <point x="1064" y="338" type="curve" smooth="yes"/>
      <point x="990" y="0" type="line"/>
      <point x="1106" y="0" type="line"/>
      <point x="1184" y="358" type="line" smooth="yes"/>
      <point x="1262" y="714"/>
      <point x="1108" y="866"/>
      <point x="768" y="866" type="curve" smooth="yes"/>
      <point x="630" y="866"/>
      <point x="512" y="846"/>
      <point x="390" y="810" type="curve"/>
      <point x="512" y="1400" type="line"/>
      <point x="396" y="1400" type="line"/>
    </contour>
  </outline>
</glyph>
<glyph name="Germandbls" format="2">
  <advance width="1391"/>
  <unicode hex="1E9E"/>
  <outline>
    <contour>
      <point x="793" y="-28" type="curve" smooth="yes"/>
      <point x="1045" y="-28"/>
      <point x="1275" y="86"/>
      <point x="1275" y="292" type="curve" smooth="yes"/>
      <point x="1275" y="540"/>
      <point x="943" y="602"/>
      <point x="943" y="792" type="curve" smooth="yes"/>
      <point x="943" y="926"/>
      <point x="1101" y="1048"/>
      <point x="1309" y="1218" type="curve"/>
      <point x="1329" y="1298" type="line"/>
      <point x="1189" y="1386"/>
      <point x="1051" y="1430"/>
      <point x="883" y="1430" type="curve" smooth="yes"/>
      <point x="593" y="1430"/>
      <point x="357" y="1226"/>
      <point x="289" y="908" type="curve" smooth="yes"/>
      <point x="97" y="0" type="line"/>
      <point x="213" y="0" type="line"/>
      <point x="405" y="908" type="line" smooth="yes"/>
      <point x="461" y="1172"/>
      <point x="631" y="1320"/>
      <point x="865" y="1320" type="curve" smooth="yes"/>
      <point x="1015" y="1320"/>
      <point x="1077" y="1290"/>
      <point x="1177" y="1242" type="curve"/>
      <point x="931" y="1030"/>
      <point x="811" y="942"/>
      <point x="811" y="768" type="curve" smooth="yes"/>
      <point x="811" y="522"/>
      <point x="1145" y="494"/>
      <point x="1145" y="292" type="curve" smooth="yes"/>
      <point x="1145" y="154"/>
      <point x="993" y="78"/>
      <point x="817" y="78" type="curve" smooth="yes"/>
      <point x="735" y="78"/>
      <point x="655" y="94"/>
      <point x="595" y="116" type="curve"/>
      <point x="534" y="18" type="line"/>
      <point x="642" y="-20"/>
      <point x="735" y="-28"/>
    </contour>
  </outline>
</glyph>
<glyph name="minute" format="2">
  <advance width="420"/>
  <unicode hex="2032"/>
  <outline>
    <contour>
      <point x="226" y="992" type="line"/>
      <point x="314" y="992" type="line"/>
      <point x="514" y="1400" type="line"/>
      <point x="404" y="1400" type="line"/>
    </contour>
  </outline>
</glyph>
<glyph name="guilsinglright" format="2">
  <advance width="573"/>
  <unicode hex="203A"/>
  <outline>
    <contour>
      <point x="100" y="110" type="line"/>
      <point x="517" y="498" type="line"/>
      <point x="251" y="886" type="line"/>
      <point x="176" y="834" type="line"/>
      <point x="395" y="504" type="line"/>
      <point x="43" y="171" type="line"/>
    </contour>
  </outline>
</glyph>
<glyph name="rupeeIndian" format="2">
  <advance width="1296"/>
  <unicode hex="20B9"/>
  <outline>
    <contour>
      <point x="712" y="0" type="line"/>
      <point x="848" y="0" type="line"/>
      <point x="502" y="616" type="line"/>
      <point x="790" y="636"/>
      <point x="1006" y="782"/>
      <point x="1006" y="1048" type="curve" smooth="yes"/>
      <point x="1006" y="1254"/>
      <point x="862" y="1390"/>
      <point x="630" y="1390" type="curve" smooth="yes"/>
      <point x="514" y="1390" type="line"/>
      <point x="496" y="1300" type="line"/>
      <point x="598" y="1300" type="line" smooth="yes"/>
      <point x="798" y="1300"/>
      <point x="894" y="1198"/>
      <point x="896" y="1040" type="curve" smooth="yes"/>
      <point x="896" y="834"/>
      <point x="728" y="716"/>
      <point x="490" y="716" type="curve" smooth="yes"/>
      <point x="372" y="716" type="line"/>
      <point x="356" y="640" type="line"/>
    </contour>
    <contour>
      <point x="250" y="992" type="line"/>
      <point x="1266" y="992" type="line"/>
      <point x="1288" y="1092" type="line"/>
      <point x="272" y="1092" type="line"/>
    </contour>
    <contour>
      <point x="316" y="1300" type="line"/>
      <point x="1332" y="1300" type="line"/>
      <point x="1352" y="1400" type="line"/>
      <point x="336" y="1400" type="line"/>
    </contour>
  </outline>
</glyph>
<glyph name="trademark" format="2">
  <advance width="1872"/>
  <unicode hex="2122"/>
  <anchor x="474" y="984" name="bar"/>
  <anchor x="384" y="560" name="bottom"/>
  <anchor x="562" y="1400" name="top"/>
  <outline>
    <contour>
      <point x="332" y="560" type="line"/>
      <point x="438" y="560" type="line"/>
      <point x="596" y="1304" type="line"/>
      <point x="850" y="1304" type="line"/>
      <point x="870" y="1400" type="line"/>
      <point x="254" y="1400" type="line"/>
      <point x="236" y="1304" type="line"/>
      <point x="490" y="1304" type="line"/>
    </contour>
    <contour>
      <point x="854" y="560" type="line"/>
      <point x="958" y="560" type="line"/>
      <point x="1098" y="1218" type="line"/>
      <point x="1300" y="752" type="line"/>
      <point x="1386" y="752" type="line"/>
      <point x="1784" y="1202" type="line"/>
      <point x="1646" y="560" type="line"/>
      <point x="1750" y="560" type="line"/>
      <point x="1926" y="1400" type="line"/>
      <point x="1830" y="1400" type="line"/>
      <point x="1364" y="868" type="line"/>
      <point x="1134" y="1400" type="line"/>
      <point x="1032" y="1400" type="line"/>
    </contour>
  </outline>
</glyph>
<glyph name="leftArrow" format="2">
  <advance width="1801"/>
  <unicode hex="2190"/>
  <outline>
    <contour>
      <point x="708" y="170" type="line"/>
      <point x="776" y="238" type="line"/>
      <point x="328" y="684" type="line"/>
      <point x="1828" y="684" type="line"/>
      <point x="1828" y="780" type="line"/>
      <point x="328" y="780" type="line"/>
      <point x="776" y="1226" type="line"/>
      <point x="708" y="1294" type="line"/>
      <point x="146" y="732" type="line"/>
    </contour>
  </outline>
</glyph>
<glyph name="southEastArrow" format="2">
  <advance width="2196"/>
  <unicode hex="2198"/>
  <outline>
    <contour>
      <point x="1111" y="0" type="line"/>
      <point x="1905" y="0" type="line"/>
      <point x="1903" y="794" type="line"/>
      <point x="1809" y="794" type="line"/>
      <point x="1809" y="164" type="line"/>
      <point x="581" y="1392" type="line"/>
      <point x="513" y="1324" type="line"/>
      <point x="1741" y="96" type="line"/>
      <point x="1111" y="96" type="line"/>
    </contour>
  </outline>
</glyph>
<glyph name="minus" format="2">
  <advance width="1296"/>
  <unicode hex="2212"/>
  <outline>
    <contour>
      <point x="209" y="616" type="line"/>
      <point x="1145" y="616" type="line"/>
      <point x="1165" y="712" type="line"/>
      <point x="229" y="712" type="line"/>
    </contour>
  </outline>
</glyph>
<glyph name="rightanglebracket-math" format="2">
  <advance width="1296"/>
  <unicode hex="27E9"/>
  <outline>
    <contour>
      <point x="94" y="-416" type="line"/>
      <point x="1080" y="664" type="line"/>
      <point x="553" y="1744" type="line"/>
      <point x="469" y="1703" type="line"/>
      <point x="970" y="670" type="line"/>
      <point x="31" y="-358" type="line"/>
    </contour>
  </outline>
</glyph>
<glyph name=".notdef" format="2">
  <advance width="1234"/>
  <outline>
    <contour>
      <point x="70" y="0" type="line"/>
      <point x="962" y="0" type="line"/>
      <point x="1258" y="1400" type="line"/>
      <point x="366" y="1400" type="line"/>
    </contour>
    <contour>
      <point x="204" y="106" type="line"/>
      <point x="456" y="1296" type="line"/>
      <point x="1124" y="1296" type="line"/>
      <point x="872" y="106" type="line"/>
    </contour>
  </outline>
</glyph>
<glyph name="_part.currencyBarHorizontalSingle" format="2">
  <advance width="1296"/>
  <anchor x="844" y="1400" name="_top"/>
  <outline>
    <contour>
      <point x="94" y="638" type="line"/>
      <point x="1270" y="638" type="line"/>
      <point x="1290" y="738" type="line"/>
      <point x="114" y="738" type="line"/>
    </contour>
  </outline>
</glyph>
<glyph name="_part.cy-desc-uc-reversed-stem" format="2">
  <guideline x="-141" y="-180" angle="77.9387"/>
  <guideline x="-87" y="27" angle="257.4712"/>
  <anchor x="-206" y="0" name="_descender"/>
  <outline>
    <contour>
      <point x="-390" y="-360" type="line"/>
      <point x="-282" y="-360" type="line"/>
      <point x="-206" y="0" type="line"/>
      <point x="-182" y="20" type="line"/>
      <point x="-162" y="108" type="line"/>
      <point x="-290" y="108" type="line"/>
    </contour>
  </outline>
</glyph>
<glyph name="_part.cy-desc-uc" format="2">
  <anchor x="-266" y="0" name="_descender"/>
  <outline>
    <contour>
      <point x="-230" y="-360" type="line"/>
      <point x="-122" y="-360" type="line"/>
      <point x="-22" y="108" type="line"/>
      <point x="-290" y="108" type="line"/>
      <point x="-314" y="0" type="line"/>
      <point x="-154" y="0" type="line"/>
    </contour>
  </outline>
</glyph>
<glyph name="_part.kaverticalstroke-cy" format="2">
  <advance width="1050"/>
  <anchor x="442" y="512" name="center"/>
  <outline>
    <contour>
      <point x="748" y="0" type="line"/>
      <point x="888" y="0" type="line"/>
      <point x="642" y="522" type="line"/>
      <point x="1016" y="960" type="line"/>
      <point x="896" y="960" type="line"/>
      <point x="518" y="518" type="line"/>
    </contour>
    <contour>
      <point x="72" y="0" type="line"/>
      <point x="184" y="0" type="line"/>
      <point x="278" y="460" type="line"/>
      <point x="564" y="460" type="line"/>
      <point x="586" y="564" type="line"/>
      <point x="300" y="564" type="line"/>
      <point x="384" y="960" type="line"/>
      <point x="272" y="960" type="line"/>
    </contour>
  </outline>
</glyph>
<glyph name="_part.naira" format="2">
  <advance width="1296"/>
  <anchor x="548" y="0" name="bottom"/>
  <anchor x="844" y="1400" name="top"/>
  <outline>
    <contour>
      <point x="96" y="0" type="line"/>
      <point x="210" y="0" type="line"/>
      <point x="464" y="1198" type="line"/>
      <point x="906" y="0" type="line"/>
      <point x="1000" y="0" type="line"/>
      <point x="1296" y="1400" type="line"/>
      <point x="1184" y="1400" type="line"/>
      <point x="934" y="218" type="line"/>
      <point x="490" y="1400" type="line"/>
      <point x="392" y="1400" type="line"/>
    </contour>
  </outline>
</glyph>
<glyph name="_part.tse-cy" format="2">
  <advance width="1156"/>
  <anchor x="476" y="0" name="bottom"/>
  <anchor x="884" y="0" name="descender"/>
  <outline>
    <contour>
      <point x="72" y="0" type="line"/>
      <point x="884" y="0" type="line"/>
      <point x="1084" y="960" type="line"/>
      <point x="972" y="960" type="line"/>
      <point x="792" y="104" type="line"/>
      <point x="204" y="104" type="line"/>
      <point x="384" y="960" type="line"/>
      <point x="272" y="960" type="line"/>
    </contour>
  </outline>
</glyph>
<glyph name="a.ss01" format="2">
  <advance width="1261"/>
  <anchor x="527" y="0" name="bottom"/>
  <anchor x="989" y="0" name="ogonek"/>
  <anchor x="679" y="960" name="top"/>
  <outline>
    <contour>
      <point x="541" y="-30" type="curve" smooth="yes"/>
      <point x="725" y="-30"/>
      <point x="839" y="54"/>
      <point x="933" y="168" type="curve"/>
      <point x="923" y="212" type="line"/>
      <point x="877" y="0" type="line"/>
      <point x="989" y="0" type="line"/>
      <point x="1193" y="960" type="line"/>
      <point x="1081" y="960" type="line"/>
      <point x="1035" y="748" type="line"/>
      <point x="1059" y="748" type="line"/>
      <point x="993" y="884"/>
      <point x="865" y="990"/>
      <point x="645" y="990" type="curve" smooth="yes"/>
      <point x="333" y="990"/>
      <point x="79" y="730"/>
      <point x="79" y="416" type="curve" smooth="yes"/>
      <point x="79" y="168"/>
      <point x="253" y="-30"/>
    </contour>
    <contour>
      <point x="551" y="78" type="curve" smooth="yes"/>
      <point x="337" y="78"/>
      <point x="201" y="212"/>
      <point x="201" y="418" type="curve" smooth="yes"/>
      <point x="201" y="678"/>
      <point x="377" y="882"/>
      <point x="631" y="882" type="curve" smooth="yes"/>
      <point x="845" y="882"/>
      <point x="985" y="750"/>
      <point x="985" y="540" type="curve" smooth="yes"/>
      <point x="985" y="278"/>
      <point x="807" y="78"/>
    </contour>
  </outline>
</glyph>
<glyph name="breveinvertedcomb.narrow" format="2">
  <anchor x="-638" y="960" name="_top"/>
  <outline>
    <contour>
      <point x="-870" y="1170" type="curve"/>
      <point x="-772" y="1170" type="line"/>
      <point x="-758" y="1320"/>
      <point x="-668" y="1418"/>
      <point x="-560" y="1418" type="curve" smooth="yes"/>
      <point x="-434" y="1418"/>
      <point x="-380" y="1314"/>
      <point x="-404" y="1170" type="curve"/>
      <point x="-302" y="1170" type="line"/>
      <point x="-272" y="1360"/>
      <point x="-374" y="1514"/>
      <point x="-546" y="1514" type="curve" smooth="yes"/>
      <point x="-712" y="1514"/>
      <point x="-852" y="1372"/>
    </contour>
  </outline>
</glyph>
<glyph name="caroncomb.alt" format="2">
  <anchor x="-166" y="1440" name="_caron"/>
  <outline>
    <contour>
      <point x="-142" y="1052" type="line"/>
      <point x="-59" y="1052" type="line"/>
      <point x="68" y="1440" type="line"/>
      <point x="-58" y="1440" type="line"/>
    </contour>
  </outline>
</glyph>
<glyph name="dieresiscomb.case" format="2">
  <anchor x="-764" y="1398" name="_top"/>
  <anchor x="-702" y="1704" name="top"/>
  <outline>
    <contour>
      <point x="-904" y="1584" type="curve" smooth="yes"/>
      <point x="-850" y="1584"/>
      <point x="-796" y="1630"/>
      <point x="-796" y="1682" type="curve" smooth="yes"/>
      <point x="-796" y="1730"/>
      <point x="-838" y="1766"/>
      <point x="-884" y="1766" type="curve" smooth="yes"/>
      <point x="-938" y="1766"/>
      <point x="-992" y="1720"/>
      <point x="-992" y="1668" type="curve" smooth="yes"/>
      <point x="-992" y="1624"/>
      <point x="-954" y="1584"/>
    </contour>
    <contour>
      <point x="-530" y="1584" type="curve" smooth="yes"/>
      <point x="-476" y="1584"/>
      <point x="-422" y="1630"/>
      <point x="-422" y="1682" type="curve" smooth="yes"/>
      <point x="-422" y="1728"/>
      <point x="-462" y="1766"/>
      <point x="-510" y="1766" type="curve" smooth="yes"/>
      <point x="-566" y="1766"/>
      <point x="-618" y="1720"/>
      <point x="-618" y="1668" type="curve" smooth="yes"/>
      <point x="-618" y="1624"/>
      <point x="-580" y="1584"/>
    </contour>
  </outline>
</glyph>
<glyph name="f.calt" format="2">
  <advance width="714"/>
  <outline>
    <contour>
      <point x="179" y="0" type="line"/>
      <point x="291" y="0" type="line"/>
      <point x="473" y="856" type="line"/>
      <point x="740" y="856" type="line"/>
      <point x="762" y="960" type="line"/>
      <point x="495" y="960" type="line"/>
      <point x="553" y="1234" type="line" smooth="yes"/>
      <point x="571" y="1318"/>
      <point x="602" y="1362"/>
      <point x="672" y="1362" type="curve" smooth="yes"/>
      <point x="698" y="1362"/>
      <point x="723" y="1356"/>
      <point x="745" y="1345" type="curve"/>
      <point x="798" y="1447" type="line"/>
      <point x="766" y="1460"/>
      <point x="726" y="1470"/>
      <point x="669" y="1470" type="curve" smooth="yes"/>
      <point x="552" y="1470"/>
      <point x="476" y="1401"/>
      <point x="445" y="1254" type="curve" smooth="yes"/>
    </contour>
    <contour>
      <point x="140" y="856" type="line"/>
      <point x="386" y="856" type="line"/>
      <point x="406" y="960" type="line"/>
      <point x="160" y="960" type="line"/>
    </contour>
  </outline>
</glyph>
<glyph name="hookabovecomb.case" format="2">
  <anchor x="-798" y="1398" name="_top"/>
  <outline>
    <contour>
      <point x="-804" y="1592" type="curve"/>
      <point x="-712" y="1592" type="line"/>
      <point x="-736" y="1666"/>
      <point x="-720" y="1688"/>
      <point x="-618" y="1722" type="curve" smooth="yes"/>
      <point x="-526" y="1752"/>
      <point x="-450" y="1790"/>
      <point x="-450" y="1876" type="curve" smooth="yes"/>
      <point x="-450" y="1976"/>
      <point x="-580" y="2024"/>
      <point x="-716" y="2024" type="curve" smooth="yes"/>
      <point x="-784" y="2024"/>
      <point x="-850" y="2012"/>
      <point x="-908" y="1992" type="curve"/>
      <point x="-890" y="1914" type="line"/>
      <point x="-840" y="1932"/>
      <point x="-780" y="1942"/>
      <point x="-714" y="1942" type="curve" smooth="yes"/>
      <point x="-622" y="1942"/>
      <point x="-550" y="1910"/>
      <point x="-550" y="1856" type="curve" smooth="yes"/>
      <point x="-550" y="1804"/>
      <point x="-602" y="1790"/>
      <point x="-684" y="1768" type="curve" smooth="yes"/>
      <point x="-798" y="1738"/>
      <point x="-844" y="1688"/>
    </contour>
  </outline>
</glyph>
<glyph name="hungarumlautcomb.case" format="2">
  <anchor x="-784" y="1398" name="_top"/>
  <outline>
    <contour>
      <point x="-622" y="1592" type="line"/>
      <point x="-510" y="1592" type="line"/>
      <point x="-246" y="1904" type="line"/>
      <point x="-370" y="1904" type="line"/>
    </contour>
    <contour>
      <point x="-972" y="1592" type="line"/>
      <point x="-860" y="1592" type="line"/>
      <point x="-596" y="1904" type="line"/>
      <point x="-720" y="1904" type="line"/>
    </contour>
  </outline>
</glyph>
<glyph name="nine.ss02" format="2">
  <advance width="1217"/>
  <outline>
    <contour>
      <point x="258" y="0" type="line"/>
      <point x="404" y="0" type="line"/>
      <point x="928" y="544" type="line" smooth="yes"/>
      <point x="1082" y="700"/>
      <point x="1196" y="832"/>
      <point x="1196" y="1020" type="curve" smooth="yes"/>
      <point x="1196" y="1242"/>
      <point x="1004" y="1430"/>
      <point x="734" y="1430" type="curve" smooth="yes"/>
      <point x="442" y="1430"/>
      <point x="196" y="1210"/>
      <point x="196" y="932" type="curve" smooth="yes"/>
      <point x="196" y="710"/>
      <point x="382" y="538"/>
      <point x="646" y="538" type="curve" smooth="yes"/>
      <point x="718" y="538"/>
      <point x="792" y="552"/>
      <point x="848" y="584" type="curve"/>
      <point x="856" y="606" type="line"/>
    </contour>
    <contour>
      <point x="664" y="640" type="curve" smooth="yes"/>
      <point x="462" y="640"/>
      <point x="322" y="772"/>
      <point x="322" y="948" type="curve" smooth="yes"/>
      <point x="322" y="1154"/>
      <point x="496" y="1318"/>
      <point x="718" y="1318" type="curve" smooth="yes"/>
      <point x="928" y="1318"/>
      <point x="1070" y="1190"/>
      <point x="1070" y="1012" type="curve" smooth="yes"/>
      <point x="1070" y="796"/>
      <point x="886" y="640"/>
    </contour>
  </outline>
</glyph>
<glyph name="one.tnum" format="2">
  <advance width="1296"/>
  <outline>
    <contour>
      <point x="124" y="0" type="line"/>
      <point x="1068" y="0" type="line"/>
      <point x="1090" y="108" type="line"/>
      <point x="696" y="108" type="line"/>
      <point x="978" y="1430" type="line"/>
      <point x="968" y="1430" type="line"/>
      <point x="368" y="1221" type="line"/>
      <point x="398" y="1134" type="line"/>
      <point x="836" y="1284" type="line"/>
      <point x="584" y="108" type="line"/>
      <point x="146" y="108" type="line"/>
    </contour>
  </outline>
</glyph>
<glyph name="strokeshortcomb.case" format="2">
  <anchor x="-788" y="742" name="_bar"/>
  <outline>
    <contour>
      <point x="-1210" y="698" type="line"/>
      <point x="-386" y="698" type="line"/>
      <point x="-366" y="786" type="line"/>
      <point x="-1190" y="786" type="line"/>
    </contour>
  </outline>
</glyph>
<glyph name="zhe-cy.loclBGR" format="2">
  <advance width="1466"/>
  <outline>
    <contour>
      <point x="576" y="0" type="line"/>
      <point x="688" y="0" type="line"/>
      <point x="786" y="460" type="line"/>
      <point x="1040" y="460" type="line"/>
      <point x="1064" y="564" type="line"/>
      <point x="808" y="564" type="line"/>
      <point x="996" y="1440" type="line"/>
      <point x="884" y="1440" type="line"/>
      <point x="696" y="564" type="line"/>
      <point x="438" y="564" type="line"/>
      <point x="414" y="460" type="line"/>
      <point x="674" y="460" type="line"/>
    </contour>
    <contour>
      <point x="-42" y="0" type="line"/>
      <point x="96" y="0" type="line"/>
      <point x="510" y="516" type="line"/>
      <point x="340" y="960" type="line"/>
      <point x="220" y="960" type="line"/>
      <point x="388" y="522" type="line"/>
    </contour>
    <contour>
      <point x="1170" y="0" type="line"/>
      <point x="1304" y="0" type="line"/>
      <point x="1092" y="512" type="line"/>
      <point x="1444" y="960" type="line"/>
      <point x="1318" y="960" type="line"/>
      <point x="972" y="516" type="line"/>
    </contour>
  </outline>
</glyph>
